<?xml version="1.0" standalone="no"?><!DOCTYPE svg PUBLIC "-//W3C//DTD SVG 1.1//EN" "http://www.w3.org/Graphics/SVG/1.1/DTD/svg11.dtd"><svg t="1551097675757" class="icon" style="" viewBox="0 0 1039 1024" version="1.1" xmlns="http://www.w3.org/2000/svg" p-id="1455" xmlns:xlink="http://www.w3.org/1999/xlink" width="811.71875" height="800"><defs><style type="text/css"></style></defs><path d="M520.677966 944.934087c-233.340866 0-424.256121-190.915254-424.25612-424.256121s190.915254-424.256121 424.25612-424.25612 424.256121 190.915254 424.256121 424.25612c0 235.269303-190.915254 424.256121-424.256121 424.256121z m0-771.374765c-190.915254 0-347.118644 156.20339-347.118644 347.118644s156.20339 347.118644 347.118644 347.118644 347.118644-156.20339 347.118644-347.118644-156.20339-347.118644-347.118644-347.118644z" fill="#388CEB" p-id="1456"></path><path d="M867.79661 944.934087h-327.834275c-21.212806 0-38.568738-17.355932-38.568738-38.568739s17.355932-38.568738 38.568738-38.568738h327.834275c21.212806 0 38.568738 17.355932 38.568738 38.568738s-17.355932 38.568738-38.568738 38.568739z" fill="#388CEB" p-id="1457"></path><path d="M520.677966 445.468927c-63.638418 0-115.706215-52.067797-115.706215-115.706215s52.067797-115.706215 115.706215-115.706215 115.706215 52.067797 115.706215 115.706215-52.067797 115.706215-115.706215 115.706215z m0-175.487759c-32.783427 0-57.853107 26.998117-57.853107 57.853107s26.998117 57.853107 57.853107 57.853107 57.853107-26.998117 57.853107-57.853107-25.06968-57.853107-57.853107-57.853107z" fill="#E78E00" p-id="1458"></path><path d="M327.834275 638.312618c-63.638418 0-115.706215-52.067797-115.706215-115.706215s52.067797-115.706215 115.706215-115.706215 115.706215 52.067797 115.706215 115.706215-52.067797 115.706215-115.706215 115.706215z m0-175.487759c-32.783427 0-57.853107 26.998117-57.853107 57.853107 0 32.783427 26.998117 57.853107 57.853107 57.853107s57.853107-26.998117 57.853107-57.853107-25.06968-57.853107-57.853107-57.853107z" fill="#388CEB" p-id="1459"></path><path d="M520.677966 831.156309c-63.638418 0-115.706215-52.067797-115.706215-115.706215s52.067797-115.706215 115.706215-115.706215 115.706215 52.067797 115.706215 115.706215-52.067797 115.706215-115.706215 115.706215z m0-175.487759c-32.783427 0-57.853107 26.998117-57.853107 57.853107s26.998117 57.853107 57.853107 57.853108 57.853107-26.998117 57.853107-57.853108-25.06968-57.853107-57.853107-57.853107z" fill="#E78E00" p-id="1460"></path><path d="M713.521657 638.312618c-63.638418 0-115.706215-52.067797-115.706214-115.706215s52.067797-115.706215 115.706214-115.706215 115.706215 52.067797 115.706215 115.706215-52.067797 115.706215-115.706215 115.706215z m0-175.487759c-32.783427 0-57.853107 26.998117-57.853107 57.853107 0 32.783427 26.998117 57.853107 57.853107 57.853107s57.853107-26.998117 57.853108-57.853107-25.06968-57.853107-57.853108-57.853107z" fill="#388CEB" p-id="1461"></path></svg>